<svg id="visual" viewBox="0 0 900 600" width="900" height="600" xmlns="http://www.w3.org/2000/svg" xmlns:xlink="http://www.w3.org/1999/xlink" version="1.1"><rect x="0" y="0" width="900" height="600" fill="#cddfff"></rect><path d="M206 0L199.2 14.3C192.3 28.7 178.7 57.3 181.2 85.8C183.7 114.3 202.3 142.7 214.5 171.2C226.7 199.7 232.3 228.3 228.5 257C224.7 285.7 211.3 314.3 202 343C192.7 371.7 187.3 400.3 198.7 428.8C210 457.3 238 485.7 255.3 514.2C272.7 542.7 279.3 571.3 282.7 585.7L286 600L0 600L0 585.7C0 571.3 0 542.7 0 514.2C0 485.7 0 457.3 0 428.8C0 400.3 0 371.7 0 343C0 314.3 0 285.7 0 257C0 228.3 0 199.7 0 171.2C0 142.7 0 114.3 0 85.8C0 57.3 0 28.7 0 14.3L0 0Z" fill="#0066FF" stroke-linecap="round" stroke-linejoin="miter"></path></svg>