<svg id="visual" viewBox="0 0 900 600" width="900" height="600" xmlns="http://www.w3.org/2000/svg" xmlns:xlink="http://www.w3.org/1999/xlink" version="1.1"><rect x="0" y="0" width="900" height="600" fill="#ffffff"></rect><path d="M0 115L21.5 114.5C43 114 86 113 128.8 102.5C171.7 92 214.3 72 257.2 66.3C300 60.7 343 69.3 385.8 79.5C428.7 89.7 471.3 101.3 514.2 111.3C557 121.3 600 129.7 642.8 131.8C685.7 134 728.3 130 771.2 114.8C814 99.7 857 73.3 878.5 60.2L900 47L900 0L878.5 0C857 0 814 0 771.2 0C728.3 0 685.7 0 642.8 0C600 0 557 0 514.2 0C471.3 0 428.7 0 385.8 0C343 0 300 0 257.2 0C214.3 0 171.7 0 128.8 0C86 0 43 0 21.5 0L0 0Z" fill="#3460a1" stroke-linecap="round" stroke-linejoin="miter"></path></svg>