<svg id="visual" viewBox="0 0 900 600" width="900" height="600" xmlns="http://www.w3.org/2000/svg" xmlns:xlink="http://www.w3.org/1999/xlink" version="1.1"><rect x="0" y="0" width="900" height="600" fill="#ffffff"></rect><path d="M0 87L25 100.7C50 114.3 100 141.7 150 146.8C200 152 250 135 300 122.5C350 110 400 102 450 94.2C500 86.3 550 78.7 600 87.5C650 96.3 700 121.7 750 125.7C800 129.7 850 112.3 875 103.7L900 95L900 0L875 0C850 0 800 0 750 0C700 0 650 0 600 0C550 0 500 0 450 0C400 0 350 0 300 0C250 0 200 0 150 0C100 0 50 0 25 0L0 0Z" fill="#3460a1" stroke-linecap="round" stroke-linejoin="miter"></path></svg>